<svg width="806" height="905" viewBox="0 0 806 905" fill="none" xmlns="http://www.w3.org/2000/svg">
<path d="M420.881 7.32233C411.118 -2.44078 395.289 -2.44078 385.526 7.32233L226.427 166.421C216.664 176.184 216.664 192.014 226.427 201.777C236.19 211.54 252.019 211.54 261.782 201.777L403.204 60.3553L544.625 201.777C554.388 211.54 570.217 211.54 579.98 201.777C589.743 192.014 589.743 176.184 579.98 166.421L420.881 7.32233ZM403.204 868H428.204L428.204 25H403.204H378.204L378.204 868H403.204Z" fill="#3FB968"/>
<path d="M28.4178 523.465C28.2532 517.356 31.8906 507.018 49.0431 493.37C65.7802 480.051 91.745 466.698 126.195 454.7C194.811 430.802 291.595 414.157 400.029 411.234C508.462 408.312 606.003 419.719 675.806 439.885C710.853 450.011 737.499 461.946 754.929 474.343C772.792 487.048 776.981 497.175 777.146 503.283C777.31 509.392 773.673 519.729 756.521 533.378C739.783 546.697 713.819 560.05 679.368 572.048C610.753 595.946 513.969 612.591 405.535 615.514C297.101 618.436 199.561 607.029 129.757 586.863C94.7109 576.737 68.0646 564.802 50.6343 552.405C32.7713 539.7 28.5824 529.573 28.4178 523.465Z" stroke="#B93F88" stroke-width="50"/>
<path d="M656.263 220.337C651.122 216.081 640.31 212.542 618.869 217.44C597.871 222.237 571.174 234.272 540.34 253.833C478.916 292.8 405.941 358.505 336.787 442.025C267.632 525.545 216.692 609.494 189.867 677.109C176.401 711.051 169.557 739.524 168.761 761.049C167.948 783.027 173.442 792.989 178.583 797.245C183.723 801.502 194.534 805.04 215.975 800.142C236.973 795.345 263.67 783.31 294.505 763.749C355.929 724.783 428.904 659.077 498.058 575.558C567.213 492.038 618.153 408.088 644.978 340.473C658.444 306.531 665.287 278.057 666.083 256.533C666.896 234.555 661.403 224.594 656.263 220.337Z" stroke="#B93F88" stroke-width="50"/>
<path d="M138.361 229.364C144.474 224.103 156.274 220.228 178.127 224.258C199.696 228.236 227.046 239.334 258.599 257.904C321.481 294.913 396.136 358.674 466.808 440.783C537.48 522.892 589.415 606.209 616.649 673.899C630.315 707.866 637.217 736.563 637.939 758.484C638.67 780.694 633.082 791.785 626.969 797.046C620.857 802.307 609.057 806.181 587.205 802.151C565.636 798.174 538.285 787.076 506.732 768.505C443.851 731.496 369.195 667.736 298.524 585.627C227.852 503.518 175.917 420.201 148.683 352.511C135.016 318.544 128.115 289.846 127.393 267.926C126.661 245.716 132.249 234.625 138.361 229.364Z" stroke="#B93F88" stroke-width="50"/>
<line x1="403.204" y1="592.003" x2="403.204" y2="286.997" stroke="#3FB968" stroke-width="50"/>
<path d="M403.204 204C462.434 204 514.829 215.576 551.484 233.171C589.94 251.63 603.204 272.286 603.204 287C603.204 301.714 589.94 322.37 551.484 340.829C514.829 358.424 462.434 370 403.204 370C343.973 370 291.578 358.424 254.923 340.829C216.467 322.37 203.204 301.714 203.204 287C203.204 272.286 216.467 251.63 254.923 233.171C291.578 215.576 343.973 204 403.204 204Z" stroke="white" stroke-width="50"/>
<rect x="378.204" y="179" width="50" height="54" fill="#3FB968"/>
</svg>
