<svg width="807" height="905" viewBox="0 0 807 905" fill="none" xmlns="http://www.w3.org/2000/svg">
<path d="M421.678 7.32233C411.915 -2.44078 396.085 -2.44078 386.322 7.32233L227.223 166.421C217.46 176.184 217.46 192.014 227.223 201.777C236.986 211.54 252.816 211.54 262.579 201.777L404 60.3553L545.421 201.777C555.184 211.54 571.014 211.54 580.777 201.777C590.54 192.014 590.54 176.184 580.777 166.421L421.678 7.32233ZM404 868H429L429 25H404H379L379 868H404Z" fill="#B93F88"/>
<path d="M29.2141 523.465C29.0496 517.356 32.687 507.018 49.8395 493.37C66.5766 480.051 92.5414 466.698 126.992 454.7C195.607 430.802 292.391 414.157 400.825 411.234C509.259 408.312 606.799 419.719 676.602 439.885C711.649 450.011 738.295 461.946 755.726 474.343C773.588 487.048 777.777 497.175 777.942 503.283C778.107 509.392 774.47 519.729 757.317 533.378C740.58 546.697 714.615 560.05 680.165 572.048C611.549 595.946 514.765 612.591 406.331 615.514C297.897 618.436 200.357 607.029 130.554 586.863C95.5073 576.737 68.861 564.802 51.4307 552.405C33.5677 539.7 29.3788 529.573 29.2141 523.465Z" stroke="#3FB968" stroke-width="50"/>
<path d="M657.059 220.337C651.918 216.081 641.107 212.542 619.666 217.44C598.668 222.237 571.971 234.272 541.136 253.833C479.712 292.8 406.738 358.505 337.583 442.025C268.429 525.545 217.489 609.494 190.664 677.109C177.198 711.051 170.354 739.524 169.558 761.049C168.745 783.027 174.238 792.989 179.379 797.245C184.52 801.502 195.331 805.04 216.771 800.142C237.77 795.345 264.467 783.31 295.302 763.749C356.726 724.783 429.7 659.077 498.855 575.558C568.009 492.038 618.949 408.088 645.774 340.473C659.24 306.531 666.084 278.057 666.88 256.533C667.692 234.555 662.2 224.594 657.059 220.337Z" stroke="#3FB968" stroke-width="50"/>
<path d="M139.158 229.364C145.27 224.103 157.07 220.228 178.923 224.258C200.492 228.236 227.842 239.334 259.396 257.904C322.277 294.913 396.932 358.674 467.604 440.783C538.276 522.892 590.211 606.209 617.445 673.899C631.111 707.866 638.013 736.563 638.735 758.484C639.466 780.694 633.878 791.785 627.766 797.046C621.653 802.307 609.854 806.181 588.001 802.151C566.432 798.174 539.082 787.076 507.528 768.505C444.647 731.496 369.992 667.736 299.32 585.627C228.648 503.518 176.713 420.201 149.479 352.511C135.813 318.544 128.911 289.846 128.189 267.926C127.458 245.716 133.046 234.625 139.158 229.364Z" stroke="#3FB968" stroke-width="50"/>
<line x1="404" y1="592.003" x2="404" y2="286.997" stroke="#B93F88" stroke-width="50"/>
<path d="M404 204C463.23 204 515.625 215.576 552.28 233.171C590.737 251.63 604 272.286 604 287C604 301.714 590.737 322.37 552.28 340.829C515.625 358.424 463.23 370 404 370C344.77 370 292.375 358.424 255.72 340.829C217.263 322.37 204 301.714 204 287C204 272.286 217.263 251.63 255.72 233.171C292.375 215.576 344.77 204 404 204Z" stroke="#1C1B1B" stroke-width="50"/>
<rect x="379" y="179" width="50" height="54" fill="#B93F88"/>
</svg>
