<svg width="240" height="100" viewBox="0 0 240 100" fill="none" xmlns="http://www.w3.org/2000/svg">
<path d="M28 80V22L1 1L40 22V36L72 22L96 16L40 47L53 42L79 80V98L40 61V98H18L28 80Z" fill="white" stroke="#D9FF00"/>
<path d="M91.8068 37.7273H96.7273L94.2273 52.8409C93.947 54.5379 93.2992 56.0227 92.2841 57.2955C91.2689 58.5682 89.9773 59.5606 88.4091 60.2727C86.8409 60.9773 85.0909 61.3295 83.1591 61.3295C81.2273 61.3295 79.5985 60.9773 78.2727 60.2727C76.947 59.5606 75.9886 58.5682 75.3977 57.2955C74.8068 56.0227 74.6515 54.5379 74.9318 52.8409L77.4318 37.7273H82.3523L79.9091 52.4205C79.7727 53.3068 79.8409 54.0947 80.1136 54.7841C80.3939 55.4735 80.8561 56.0152 81.5 56.4091C82.1439 56.803 82.9394 57 83.8864 57C84.8409 57 85.7045 56.803 86.4773 56.4091C87.2576 56.0152 87.8977 55.4735 88.3977 54.7841C88.9053 54.0947 89.2273 53.3068 89.3636 52.4205L91.8068 37.7273ZM120.241 37.7273L116.378 61H112.128L104.457 46.3523H104.276L101.832 61H96.9119L100.776 37.7273H105.094L112.73 52.3636H112.923L115.344 37.7273H120.241ZM124.455 61H119.182L131.08 37.7273H137.42L141.58 61H136.307L133.477 43.0455H133.295L124.455 61ZM125.659 51.8523H138.114L137.455 55.6932H125L125.659 51.8523ZM144.381 61L148.244 37.7273H153.165L149.983 56.9432H159.96L159.278 61H144.381ZM165.491 61.2955C164.726 61.2955 164.098 61.0303 163.605 60.5C163.12 59.9697 162.901 59.3258 162.946 58.5682C162.999 57.8182 163.313 57.1856 163.889 56.6705C164.473 56.1477 165.143 55.8864 165.901 55.8864C166.628 55.8864 167.241 56.1477 167.741 56.6705C168.241 57.1932 168.461 57.8258 168.401 58.5682C168.363 59.0682 168.2 59.5265 167.912 59.9432C167.632 60.3523 167.276 60.6818 166.844 60.9318C166.412 61.1742 165.961 61.2955 165.491 61.2955ZM180.432 61H172.068L175.932 37.7273H184.136C186.477 37.7273 188.42 38.2045 189.966 39.1591C191.519 40.1136 192.614 41.4811 193.25 43.2614C193.886 45.0341 194 47.1515 193.591 49.6136C193.197 51.9924 192.413 54.0341 191.239 55.7386C190.064 57.4356 188.561 58.7386 186.727 59.6477C184.894 60.5492 182.795 61 180.432 61ZM177.693 56.7841H180.716C182.178 56.7841 183.458 56.5114 184.557 55.9659C185.663 55.4205 186.568 54.5795 187.273 53.4432C187.985 52.3068 188.489 50.8523 188.784 49.0795C189.064 47.3977 189.045 46.0341 188.727 44.9886C188.417 43.9356 187.814 43.1667 186.92 42.6818C186.027 42.1894 184.852 41.9432 183.398 41.9432H180.159L177.693 56.7841ZM195.349 61L199.213 37.7273H214.895L214.213 41.7841H203.452L202.543 47.3295H212.497L211.815 51.3864H201.861L200.952 56.9432H211.759L211.077 61H195.349ZM223.011 37.7273L225.716 55.4091H225.932L234.489 37.7273H239.943L228.057 61H221.716L217.545 37.7273H223.011Z" fill="white"/>
</svg>
