<svg width="239" height="100" viewBox="0 0 239 100" fill="none" xmlns="http://www.w3.org/2000/svg">
<path d="M28 80V22L1 1L40 22V36L72 22L96 16L40 47L53 42L79 80V98L40 61V98H18L28 80Z" fill="black" stroke="#D9FF00"/>
<path d="M90.8068 42.7273H95.7273L93.2273 57.8409C92.947 59.5379 92.2992 61.0227 91.2841 62.2955C90.2689 63.5682 88.9773 64.5606 87.4091 65.2727C85.8409 65.9773 84.0909 66.3295 82.1591 66.3295C80.2273 66.3295 78.5985 65.9773 77.2727 65.2727C75.947 64.5606 74.9886 63.5682 74.3977 62.2955C73.8068 61.0227 73.6515 59.5379 73.9318 57.8409L76.4318 42.7273H81.3523L78.9091 57.4205C78.7727 58.3068 78.8409 59.0947 79.1136 59.7841C79.3939 60.4735 79.8561 61.0152 80.5 61.4091C81.1439 61.803 81.9394 62 82.8864 62C83.8409 62 84.7045 61.803 85.4773 61.4091C86.2576 61.0152 86.8977 60.4735 87.3977 59.7841C87.9053 59.0947 88.2273 58.3068 88.3636 57.4205L90.8068 42.7273ZM119.241 42.7273L115.378 66H111.128L103.457 51.3523H103.276L100.832 66H95.9119L99.7756 42.7273H104.094L111.73 57.3636H111.923L114.344 42.7273H119.241ZM123.455 66H118.182L130.08 42.7273H136.42L140.58 66H135.307L132.477 48.0455H132.295L123.455 66ZM124.659 56.8523H137.114L136.455 60.6932H124L124.659 56.8523ZM143.381 66L147.244 42.7273H152.165L148.983 61.9432H158.96L158.278 66H143.381ZM164.491 66.2955C163.726 66.2955 163.098 66.0303 162.605 65.5C162.12 64.9697 161.901 64.3258 161.946 63.5682C161.999 62.8182 162.313 62.1856 162.889 61.6705C163.473 61.1477 164.143 60.8864 164.901 60.8864C165.628 60.8864 166.241 61.1477 166.741 61.6705C167.241 62.1932 167.461 62.8258 167.401 63.5682C167.363 64.0682 167.2 64.5265 166.912 64.9432C166.632 65.3523 166.276 65.6818 165.844 65.9318C165.412 66.1742 164.961 66.2955 164.491 66.2955ZM179.432 66H171.068L174.932 42.7273H183.136C185.477 42.7273 187.42 43.2045 188.966 44.1591C190.519 45.1136 191.614 46.4811 192.25 48.2614C192.886 50.0341 193 52.1515 192.591 54.6136C192.197 56.9924 191.413 59.0341 190.239 60.7386C189.064 62.4356 187.561 63.7386 185.727 64.6477C183.894 65.5492 181.795 66 179.432 66ZM176.693 61.7841H179.716C181.178 61.7841 182.458 61.5114 183.557 60.9659C184.663 60.4205 185.568 59.5795 186.273 58.4432C186.985 57.3068 187.489 55.8523 187.784 54.0795C188.064 52.3977 188.045 51.0341 187.727 49.9886C187.417 48.9356 186.814 48.1667 185.92 47.6818C185.027 47.1894 183.852 46.9432 182.398 46.9432H179.159L176.693 61.7841ZM194.349 66L198.213 42.7273H213.895L213.213 46.7841H202.452L201.543 52.3295H211.497L210.815 56.3864H200.861L199.952 61.9432H210.759L210.077 66H194.349ZM222.011 42.7273L224.716 60.4091H224.932L233.489 42.7273H238.943L227.057 66H220.716L216.545 42.7273H222.011Z" fill="black"/>
</svg>
